# xmcd CD database file
#
# Track frame offsets:
#	150
#	27846
#	34628
#	70120
#	118390
#	171926
#	206482
#	227012
#	264816
#	335160
#
# Disc length: 4604 seconds
#
# Revision: 0
# Processed by: cddbd v1.5.2PL0 Copyright (c) Steve Scherf et al.
# Submitted via: CDex 1.70beta2
#
DISCID=8911fa0a
DTITLE=WORLD SAXOPHONE QUARTET - Plays Jimi Hendrix(London Jazz Festival)
DYEAR=2005
DGENRE=Jazz
TTITLE0=Hattie Wall(WSQ Theme Tune)
TTITLE1=Band Introduction
TTITLE2=Freedom
TTITLE3=Hey Joe
TTITLE4=The Wind Cries Mary
TTITLE5=If 6 Were 9
TTITLE6=Foxy Lady
TTITLE7=Little Wing
TTITLE8=Machine Gun
TTITLE9=Hattie Wall(Reprise)
EXTD=YEAR: 2005
EXTT0=
EXTT1=
EXTT2=
EXTT3=
EXTT4=
EXTT5=
EXTT6=
EXTT7=
EXTT8=
EXTT9=
PLAYORDER=
